<?xml version="1.0" encoding="iso-8859-1"?>
<!-- Generator: Adobe Illustrator 19.0.0, SVG Export Plug-In . SVG Version: 6.00 Build 0)  -->
<svg xmlns="http://www.w3.org/2000/svg" xmlns:xlink="http://www.w3.org/1999/xlink" version="1.1" id="Capa_1" x="0px" y="0px" viewBox="0 0 512 512" style="enable-background:new 0 0 512 512;" xml:space="preserve" width="512px" height="512px">
<g>
	<g>
		<path d="M507.607,246.393l-57.606-57.606V77c0-8.284-6.716-15-15-15H323.214L265.607,4.393    c-5.876-5.876-15.409-5.854-21.257,0.044L187.263,62H75.001c-8.284,0-15,6.716-15,15v113.323L4.35,246.437    c-5.816,5.865-5.797,15.329,0.044,21.169L60,323.212V437c0,8.284,6.716,15,15,15h113.787l55.606,55.606    c5.84,5.841,15.303,5.861,21.169,0.044L321.677,452H435c8.284,0,15-6.716,15-15V324.737l57.563-57.087    C513.46,261.803,513.48,252.265,507.607,246.393z M60.001,280.787L36.17,256.956l23.831-24.029V280.787z M255.045,36.257    L280.787,62h-51.273L255.045,36.257z M199.763,92h111.025l109.213,109.213v27.819c-36.07-23.331-122.104-77.032-165-77.032    c-42.883,0-128.872,53.664-165,77.032v-26.355L199.763,92z M354.84,224.245c18.647,10.72,37.14,22.191,53.265,32.754    c-16.124,10.563-34.617,22.034-53.265,32.754c3.376-10.385,5.161-21.406,5.161-32.754    C360.001,245.651,358.216,234.631,354.84,224.245z M330.001,256.999c0,26.086-13.152,49.766-35.233,63.592    C278.383,327.624,264.364,332,255.001,332c-9.363,0-23.382-4.375-39.767-11.408c-22.081-13.827-35.233-37.506-35.233-63.592    s13.152-49.766,35.233-63.592C231.619,186.375,245.638,182,255.001,182c9.363,0,23.382,4.375,39.767,11.407    C316.849,207.234,330.001,230.913,330.001,256.999z M155.161,289.754c-18.647-10.72-37.14-22.191-53.265-32.754    c16.124-10.563,34.617-22.034,53.265-32.754C151.785,234.631,150,245.652,150,257    C150.001,268.348,151.785,279.368,155.161,289.754z M90.001,92h67.511l-67.511,68.073V92z M90.001,422v-68.787L158.788,422H90.001    z M255.045,475.83L231.214,452h47.86L255.045,475.83z M420.001,422h-68.073l68.073-67.511V422z M420.001,312.238L309.324,422    h-108.11L90.001,310.786v-25.818c36.07,23.331,122.104,77.032,165,77.032c42.883,0,128.872-53.664,165-77.032V312.238z     M420.001,158.787L353.214,92h66.787V158.787z M450.001,282.485v-51.272l25.743,25.743L450.001,282.485z" fill="#FFFFFF"/>
	</g>
</g>
<g>
	<g>
		<path d="M255.001,212c-24.813,0-45,20.187-45,45s20.187,45,45,45c24.813,0,45-20.187,45-45S279.814,212,255.001,212z M255.001,272    c-8.271,0-15-6.729-15-15c0-8.271,6.729-15,15-15c8.271,0,15,6.729,15,15C270.001,265.271,263.272,272,255.001,272z" fill="#FFFFFF"/>
	</g>
</g>
<g>
</g>
<g>
</g>
<g>
</g>
<g>
</g>
<g>
</g>
<g>
</g>
<g>
</g>
<g>
</g>
<g>
</g>
<g>
</g>
<g>
</g>
<g>
</g>
<g>
</g>
<g>
</g>
<g>
</g>
</svg>
