<?xml version="1.0" encoding="UTF-8" standalone="no"?>
<svg
   xmlns:osb="http://www.openswatchbook.org/uri/2009/osb"
   xmlns:dc="http://purl.org/dc/elements/1.1/"
   xmlns:cc="http://creativecommons.org/ns#"
   xmlns:rdf="http://www.w3.org/1999/02/22-rdf-syntax-ns#"
   xmlns:svg="http://www.w3.org/2000/svg"
   xmlns="http://www.w3.org/2000/svg"
   xmlns:xlink="http://www.w3.org/1999/xlink"
   id="svg1971"
   version="1.1"
   viewBox="0 0 56.620832 12.7"
   height="48"
   width="214">
  <defs
     id="defs1965">
    <linearGradient
       gradientUnits="userSpaceOnUse"
       y2="21.784948"
       x2="152.66437"
       y1="21.784948"
       x1="108.16144"
       id="linearGradient4155"
       xlink:href="#linearGradient4151"
       gradientTransform="matrix(0.28222223,0,0,0.28222223,0.31429913,284.42395)" />
    <linearGradient
       osb:paint="solid"
       id="linearGradient4151">
      <stop
         id="stop4153"
         offset="0"
         style="stop-color:#ffffff;stop-opacity:1;" />
    </linearGradient>
  </defs>
  <metadata
     id="metadata1968">
    <rdf:RDF>
      <cc:Work
         rdf:about="">
        <dc:format>image/svg+xml</dc:format>
        <dc:type
           rdf:resource="http://purl.org/dc/dcmitype/StillImage" />
        <dc:title></dc:title>
      </cc:Work>
    </rdf:RDF>
  </metadata>
  <g
     transform="translate(0,-284.29998)"
     id="layer1">
    <path
       id="path3341"
       d="m 5.1717346,296.39875 c -0.962308,-0.0995 -2.001364,-0.37809 -2.630218,-0.70526 -0.943913,-0.49107 -1.628357,-1.50287 -1.862885,-2.75384 -0.07541,-0.40227 -0.08589,-1.6268 -0.01721,-2.01123 0.23957,-1.34091 0.813588,-2.47664 1.749946,-3.46239 l 0.228553,-0.2406 -0.737282,0.007 c -0.79751,0.007 -0.975712,-0.0185 -1.205144,-0.17311 -0.215421,-0.14517 -0.353001,-0.45528 -0.352406,-0.79433 4.76e-4,-0.27147 0.107326,-0.46492 0.455733,-0.82506 l 0.298263,-0.30831 3.733805,0.0142 c 4.142459,0.0157 3.929959,0.005 4.616827,0.23464 1.6928934,0.56615 2.9415044,2.07486 3.1936974,3.85898 0.06003,0.42466 0.05035,1.46325 -0.01783,1.9147 -0.271419,1.79693 -1.084428,3.23104 -2.339095,4.12606 -0.6771553,0.48305 -1.7872914,0.87477 -2.9976864,1.05776 -0.487769,0.0737 -1.666402,0.10784 -2.117064,0.0612 z m 1.71074,-2.1048 c 0.899994,-0.17347 1.663294,-0.76774 1.988028,-1.54779 0.232802,-0.55921 0.42991,-1.42164 0.483434,-2.11523 0.113394,-1.4694 -0.409848,-2.76007 -1.293933,-3.1917 -0.324137,-0.15826 -0.561077,-0.21148 -0.941395,-0.21148 -0.5774,0 -0.940662,0.14205 -1.36038,0.53198 -0.699082,0.64946 -1.051407,1.54612 -1.264047,3.21696 -0.119988,0.94282 -0.05905,1.8324 0.160607,2.34441 0.0933,0.21748 0.303766,0.50875 0.456047,0.63112 0.400663,0.32198 1.137114,0.46404 1.771639,0.34173 z"
       style="fill:#ffffff;fill-opacity:1;stroke:#ffffff;stroke-width:0.03217334;stroke-miterlimit:4;stroke-dasharray:none;stroke-opacity:1" />
    <path
       id="path3343"
       d="m 15.455007,296.04347 c -0.362827,-0.012 -0.914541,-0.0238 -1.226032,-0.0262 l -0.566348,-0.004 -0.137652,-0.0924 c -0.160719,-0.10794 -0.307933,-0.31325 -0.358401,-0.49984 -0.133196,-0.49243 0.166406,-1.14325 0.631686,-1.37221 l 0.160389,-0.0789 h 1.930784 c 1.74679,0 1.96145,-0.006 2.252581,-0.0599 0.603539,-0.11244 1.13712,-0.32851 1.538085,-0.62284 0.182573,-0.13402 0.494376,-0.48756 0.673673,-0.76385 0.663999,-1.0232 0.849417,-2.44999 0.470653,-3.62168 -0.314127,-0.97173 -0.893347,-1.46714 -1.8958,-1.62147 -0.384866,-0.0592 -1.041954,-0.0918 -1.187562,-0.0589 l -0.111333,0.0252 -0.119245,0.89997 c -0.06558,0.49499 -0.127492,0.95184 -0.137571,1.01522 l -0.01833,0.11523 0.171946,-0.0143 c 0.40157,-0.0333 0.746507,0.18381 0.887685,0.55872 0.06043,0.1605 0.06976,0.23854 0.0593,0.49616 -0.01462,0.36015 -0.100682,0.5839 -0.313273,0.81453 -0.19638,0.21305 -0.383482,0.28066 -0.868513,0.31385 -0.517114,0.0354 -2.048154,0.0355 -2.595606,1.3e-4 -0.545446,-0.0352 -0.647373,-0.0873 -0.822343,-0.42055 -0.06888,-0.13118 -0.0757,-0.18269 -0.07253,-0.54706 0.0047,-0.54037 0.21253,-2.35393 0.451728,-3.94202 0.06854,-0.45507 0.101259,-0.58686 0.194576,-0.78383 0.280539,-0.59216 0.990623,-1.00214 1.735677,-1.00214 0.474625,0 1.040271,0.21598 1.385395,0.52897 l 0.198933,0.18042 0.332033,-0.0968 c 0.462277,-0.13475 0.83679,-0.19426 1.361784,-0.21639 2.154372,-0.0908 4.126622,1.05632 4.796539,2.78986 0.54843,1.41916 0.461422,3.13251 -0.233766,4.60329 -0.895964,1.89555 -2.57614,3.07949 -4.836301,3.40791 -0.882152,0.12818 -1.940464,0.15548 -3.732848,0.0963 z"
       style="fill:#ffffff;fill-opacity:1;stroke:#ffffff;stroke-width:0.03217973;stroke-opacity:1" />
    <path
       id="path3345"
       d="m 25.76784,291.6766 c 0.0628,-0.54295 0.133667,-1.0793 0.258289,-1.95492 0.174563,-1.22652 0.215602,-1.6954 0.202797,-2.31694 l -0.0099,-0.4827 -0.474651,-0.0461 c -0.353667,-0.0344 -0.474651,-0.0572 -0.474651,-0.0895 0,-0.0238 0.03788,-0.13342 0.08418,-0.2435 0.253975,-0.6039 0.757123,-1.1192 1.412181,-1.44627 1.168475,-0.58343 2.403386,-0.33991 3.025157,0.59655 0.0999,0.15046 0.119919,0.21558 0.160872,0.52333 0.104674,0.78656 0.05168,1.50475 -0.240816,3.26376 -0.104479,0.62831 -0.206238,1.33063 -0.226129,1.56072 -0.0199,0.23008 -0.04611,0.49074 -0.05826,0.57923 l -0.02209,0.1609 -0.675775,0.0196 c -0.371676,0.0108 -1.193964,0.0217 -1.827307,0.0241 l -1.151534,0.005 0.01768,-0.15285 z"
       style="fill:#ffffff;fill-opacity:1;stroke:#ffffff;stroke-width:0.03217973;stroke-opacity:1" />
    <path
       id="path3347"
       d="m 35.406295,296.34686 c -0.67541,-0.1239 -1.527143,-0.49466 -2.068505,-0.90041 -0.824367,-0.61788 -1.417944,-1.46512 -1.666076,-2.37808 -0.05955,-0.21912 -0.07228,-0.37 -0.08553,-1.01366 -0.01744,-0.84733 0.0044,-1.11862 0.213891,-2.65866 0.119655,-0.87954 0.175591,-1.39088 0.206561,-1.88821 l 0.0136,-0.21869 -0.163274,-0.1954 -0.163272,-0.1954 -0.412673,0.0228 -0.412671,0.0228 0.197231,-0.34887 c 0.25576,-0.45239 0.439669,-0.70937 0.715383,-0.99962 0.274886,-0.28939 0.55888,-0.4813 0.937953,-0.63383 0.733724,-0.29523 1.311442,-0.27621 2.009183,0.0661 0.408815,0.20059 0.776121,0.55578 0.943882,0.91274 0.180428,0.3839 0.196395,0.50132 0.174699,1.28475 -0.02088,0.75484 -0.04214,0.93977 -0.279363,2.43201 -0.224689,1.41342 -0.265464,1.80034 -0.266197,2.52611 -7.94e-4,0.70115 0.02987,0.94259 0.152067,1.2009 0.279352,0.5905 0.812876,0.90577 1.529903,0.90403 0.526719,-0.001 0.953214,-0.1479 1.342527,-0.46154 0.362704,-0.2922 0.532175,-0.58846 0.686813,-1.20066 0.198374,-0.78534 0.275154,-1.35308 0.529879,-3.91814 0.04482,-0.45133 0.100901,-0.95816 0.124629,-1.1263 0.02373,-0.16813 0.04112,-0.30838 0.03865,-0.31165 -0.0026,-0.003 -0.275987,-0.015 -0.607819,-0.026 -0.356688,-0.0119 -0.67655,-0.0392 -0.782431,-0.0667 -0.406395,-0.10585 -0.620366,-0.38129 -0.64956,-0.83615 -0.0136,-0.21178 -0.0055,-0.25793 0.07298,-0.41842 0.05376,-0.10989 0.201528,-0.29888 0.378052,-0.48352 l 0.289796,-0.30313 2.128102,1.6e-4 2.128099,1.6e-4 0.160131,0.12128 c 0.201994,0.15299 0.383495,0.39047 0.472721,0.61853 0.104645,0.26747 0.117361,0.88206 0.02963,1.43199 -0.130402,0.8174 -0.228716,1.57151 -0.389818,2.99008 -0.110771,0.97539 -0.214601,1.62746 -0.334386,2.10001 -0.271534,1.07119 -0.713531,1.90157 -1.321618,2.4829 -0.807683,0.77215 -1.887167,1.22736 -3.411437,1.43857 -0.563877,0.0781 -2.09188,0.095 -2.461752,0.0271 v 0 z"
       style="fill:#ffffff;fill-opacity:1;stroke:url(#linearGradient4155);stroke-width:0.03217973;stroke-opacity:1" />
    <path
       id="path3349"
       d="m 48.953962,296.41121 c -0.876155,-0.0796 -1.905495,-0.33077 -2.560683,-0.62473 -0.898377,-0.40307 -1.615847,-1.28282 -1.927738,-2.36375 -0.232937,-0.80729 -0.262499,-1.85327 -0.07823,-2.76784 0.232915,-1.15602 0.89295,-2.39248 1.700069,-3.18479 0.107614,-0.10564 0.195662,-0.20369 0.195662,-0.2179 0,-0.0142 -0.336679,-0.0237 -0.748178,-0.0211 -0.801947,0.005 -0.942218,-0.0151 -1.163971,-0.16701 -0.200313,-0.13725 -0.332473,-0.40659 -0.363868,-0.74155 -0.02617,-0.27915 0.08091,-0.47936 0.465984,-0.8713 l 0.312769,-0.31835 3.733303,0.0124 c 3.311723,0.0109 3.762936,0.0183 3.995735,0.0655 0.950611,0.19258 1.856684,0.69342 2.517587,1.39161 0.723704,0.76455 1.140306,1.62831 1.275606,2.64479 0.05451,0.40947 0.06104,1.23575 0.01326,1.6745 -0.23409,2.14904 -1.363985,3.93433 -2.992694,4.72863 -0.595006,0.29018 -1.710034,0.60262 -2.556449,0.71634 -0.26702,0.0359 -1.564087,0.0677 -1.818153,0.0446 z m 1.634476,-2.12259 c 0.764368,-0.15669 1.416447,-0.61138 1.809679,-1.26187 0.232085,-0.38392 0.527709,-1.43834 0.608248,-2.16947 0.171543,-1.55726 -0.330991,-2.92276 -1.251982,-3.40191 -0.313603,-0.16315 -0.595556,-0.22948 -0.979942,-0.23053 -0.498523,-10e-4 -0.844093,0.11802 -1.229659,0.42483 -0.810372,0.64483 -1.269315,1.86598 -1.430465,3.80613 -0.101738,1.2249 0.176149,2.16704 0.75402,2.55641 0.434174,0.29254 1.110914,0.40129 1.720101,0.27641 z"
       style="fill:#ffffff;fill-opacity:1;stroke:#ffffff;stroke-width:0.03217973;stroke-opacity:1" />
  </g>
</svg>
